<svg width="252" height="274" viewBox="0 0 252 274" fill="none" xmlns="http://www.w3.org/2000/svg">
<path d="M29.9485 50.8425L27.9806 46.2026C26.9602 43.7967 26.4671 41.7465 26.5015 40.0519C26.5151 38.3082 26.8291 36.7267 27.4437 35.3073C28.0583 33.888 28.7079 32.4828 29.3924 31.0918C30.373 29.1696 31.1119 27.2921 31.609 25.4592C32.1344 23.5563 31.9181 21.4756 30.9601 19.217C30.2729 17.5967 29.2762 16.3394 27.97 15.4451C26.7129 14.53 25.3248 13.9891 23.8057 13.8223C22.2867 13.6555 20.8152 13.8741 19.3914 14.478C17.7711 15.1653 16.4788 16.1478 15.5146 17.4258C14.5787 18.6338 13.9432 20.004 13.6083 21.5364C13.2526 23.0197 13.1208 24.5529 13.2129 26.1359L6.41737 25.8898C6.30292 24.6639 6.36777 23.246 6.61192 21.6362C6.88434 19.9565 7.40894 18.2567 8.18573 16.5369C8.96253 14.817 10.1031 13.2036 11.6074 11.6966C13.0909 10.1405 15.011 8.86264 17.3678 7.86305C20.1665 6.67603 22.8996 6.15405 25.5672 6.29712C28.2349 6.4402 30.6443 7.2721 32.7955 8.79283C34.9959 10.2927 36.7312 12.5402 38.0015 15.5353C39.0011 17.8921 39.4904 20.0019 39.4694 21.8646C39.4484 23.7273 39.1477 25.477 38.5673 27.1135C38.036 28.7292 37.3961 30.362 36.6476 32.0119C35.9914 33.333 35.4088 34.6229 34.8998 35.8816C34.4192 37.0703 34.1936 38.3825 34.2233 39.8182C34.2321 41.2049 34.653 42.8802 35.486 44.8442L36.7979 47.9375L29.9485 50.8425ZM39.1377 62.6737C37.8611 63.2151 36.6492 63.2946 35.5022 62.9121C34.3551 62.5297 33.5317 61.7492 33.0319 60.5708C32.5737 59.4907 32.6058 58.4053 33.1281 57.3148C33.6296 56.1752 34.5187 55.3346 35.7953 54.7932C37.0228 54.2726 38.1959 54.2384 39.3147 54.6908C40.4618 55.0733 41.2644 55.8046 41.7225 56.8848C42.2223 58.0632 42.211 59.1977 41.6887 60.2882C41.2155 61.3579 40.3652 62.153 39.1377 62.6737Z" fill="#9CA3AF"/>
<path d="M83.5 80.1573C85 45.6573 88 18.1573 128.5 18.1573C169 18.1573 171.5 42.6573 173.5 80.1573" stroke="#9CA3AF" stroke-width="6" stroke-linecap="round"/>
<path d="M112 177.157C114 167.157 116 159.657 128 159.657C140 159.657 142.5 166.157 144.5 177.157" stroke="#9CA3AF" stroke-width="6" stroke-linecap="round"/>
<line x1="51.5482" y1="80.4188" x2="35.0126" y2="269.421" stroke="#9CA3AF" stroke-width="6"/>
<line x1="222.012" y1="270.425" x2="205.012" y2="80.4246" stroke="#9CA3AF" stroke-width="6"/>
<line x1="49" y1="83.1573" x2="208" y2="83.1573" stroke="#9CA3AF" stroke-width="6"/>
<line x1="32" y1="271.157" x2="225" y2="271.157" stroke="#9CA3AF" stroke-width="4"/>
<line x1="35" y1="268.157" x2="222" y2="268.157" stroke="#9CA3AF" stroke-width="2"/>
<circle cx="88.5" cy="135.657" r="8.5" fill="#9CA3AF"/>
<circle cx="168.5" cy="135.657" r="8.5" fill="#9CA3AF"/>
<circle cx="7.00001" cy="151.157" r="6" stroke="#9CA3AF" stroke-width="2"/>
<circle cx="241" cy="183.157" r="6" stroke="#9CA3AF" stroke-width="2"/>
<path d="M13.5 208.157V220.157" stroke="#9CA3AF" stroke-width="2" stroke-linecap="round"/>
<path d="M19 214.157H8" stroke="#9CA3AF" stroke-width="2" stroke-linecap="round"/>
<path d="M250.778 117.157L243 124.936" stroke="#9CA3AF" stroke-width="2" stroke-linecap="round"/>
<path d="M250.778 124.936L243 117.157" stroke="#9CA3AF" stroke-width="2" stroke-linecap="round"/>
</svg>
